<svg width="24" height="24" viewBox="0 0 24 24" fill="none" xmlns="http://www.w3.org/2000/svg">
<g clip-path="url(#clip0_108_2879)">
<path fill-rule="evenodd" clip-rule="evenodd" d="M21.7467 0.050009C21.909 -0.0166697 22.091 -0.0166697 22.2533 0.050009C22.3633 0.08268 22.4579 0.153628 22.52 0.250009L23.915 1.6452C23.9522 1.68992 23.981 1.74121 24 1.79668C24.0198 1.87996 24.0198 1.96673 24 2.05001V23.2767C24 23.6449 23.7015 23.9433 23.3333 23.9433H2C1.91672 23.9632 1.82995 23.9632 1.74667 23.9433C1.66346 23.9149 1.58967 23.8642 1.53333 23.7967L0.2 22.4633C0.132495 22.407 0.0817608 22.3332 0.0533333 22.25C-0.0133453 22.0877 -0.0133453 21.9057 0.0533333 21.7433C0.122189 21.5813 0.251244 21.4522 0.413333 21.3833C0.496613 21.3635 0.583387 21.3635 0.666667 21.3833H21.3333V0.716676C21.3135 0.633396 21.3135 0.546622 21.3333 0.463342C21.4018 0.270354 21.5537 0.118518 21.7467 0.050009ZM19.3333 10.7167C19.7015 10.7167 20 11.0152 20 11.3833V19.3833C20 19.7515 19.7015 20.05 19.3333 20.05H11.3333C10.9651 20.05 10.6667 19.7515 10.6667 19.3833V11.3833C10.6667 11.0152 10.9651 10.7167 11.3333 10.7167H19.3333ZM8.66667 10.7167C9.03486 10.7167 9.33333 11.0152 9.33333 11.3833V19.3833C9.33333 19.7515 9.03486 20.05 8.66667 20.05H0.666667C0.298477 20.05 0 19.7515 0 19.3833V11.3833C0 11.0152 0.298477 10.7167 0.666667 10.7167H8.66667ZM3.8 13.5833C3.54227 13.3256 3.1244 13.3256 2.86667 13.5833C2.60893 13.8411 2.60893 14.2589 2.86667 14.5167L3.72 15.3833L2.86667 16.25C2.73776 16.371 2.66464 16.5399 2.66464 16.7167C2.66464 16.8935 2.73776 17.0624 2.86667 17.1833C2.98764 17.3122 3.15655 17.3854 3.33333 17.3854C3.51011 17.3854 3.67902 17.3122 3.8 17.1833L4.66667 16.33L5.53333 17.1833C5.65431 17.3122 5.82322 17.3854 6 17.3854C6.17678 17.3854 6.34569 17.3122 6.46667 17.1833C6.59557 17.0624 6.66869 16.8935 6.66869 16.7167C6.66869 16.5399 6.59557 16.371 6.46667 16.25L5.61333 15.3833L6.46667 14.5167C6.7244 14.2589 6.7244 13.8411 6.46667 13.5833C6.20893 13.3256 5.79107 13.3256 5.53333 13.5833L4.66667 14.4367L3.8 13.5833ZM16.6667 16.05H14C13.6318 16.05 13.3333 16.3485 13.3333 16.7167C13.3333 17.0849 13.6318 17.3833 14 17.3833H16.6667C17.0349 17.3833 17.3333 17.0849 17.3333 16.7167C17.3333 16.3485 17.0349 16.05 16.6667 16.05ZM16.6667 13.3833H14C13.6318 13.3833 13.3333 13.6818 13.3333 14.05C13.3333 14.4182 13.6318 14.7167 14 14.7167H16.6667C17.0349 14.7167 17.3333 14.4182 17.3333 14.05C17.3333 13.6818 17.0349 13.3833 16.6667 13.3833ZM8.66667 0.050009C9.03486 0.050009 9.33333 0.348486 9.33333 0.716676V8.71668C9.33333 9.08487 9.03486 9.38334 8.66667 9.38334H0.666667C0.298477 9.38334 0 9.08487 0 8.71668V0.716676C0 0.348486 0.298477 0.050009 0.666667 0.050009H8.66667ZM19.3333 0.050009C19.7015 0.050009 20 0.348486 20 0.716676V8.71668C20 9.08487 19.7015 9.38334 19.3333 9.38334H11.3333C10.9651 9.38334 10.6667 9.08487 10.6667 8.71668V0.716676C10.6667 0.348486 10.9651 0.050009 11.3333 0.050009H19.3333ZM4.66667 2.71668C4.29848 2.71668 4 3.01515 4 3.38334V4.05001H3.33333C2.96514 4.05001 2.66667 4.34849 2.66667 4.71668C2.66667 5.08487 2.96514 5.38334 3.33333 5.38334H4V6.05001C4 6.4182 4.29848 6.71668 4.66667 6.71668C5.03486 6.71668 5.33333 6.4182 5.33333 6.05001V5.38334H6C6.36819 5.38334 6.66667 5.08487 6.66667 4.71668C6.66667 4.34849 6.36819 4.05001 6 4.05001H5.33333V3.38334C5.33333 3.01515 5.03486 2.71668 4.66667 2.71668ZM16.6667 4.05001H14C13.6318 4.05001 13.3333 4.34849 13.3333 4.71668C13.3333 5.08487 13.6318 5.38334 14 5.38334H16.6667C17.0349 5.38334 17.3333 5.08487 17.3333 4.71668C17.3333 4.34849 17.0349 4.05001 16.6667 4.05001Z" fill="#FFA000"/>
</g>
<defs>
<clipPath id="clip0_108_2879">
<rect width="24" height="24" fill="white"/>
</clipPath>
</defs>
</svg>
